<svg xmlns="http://www.w3.org/2000/svg" width="40" height="35.968" viewBox="0 0 40 35.968">
    <defs>
        <style>
            .cls-1{fill:none}.cls-2{fill:#0a2463;font-size:12px;font-family:Roboto-Regular,Roboto}.cls-3{fill:#0d2144}.cls-4{clip-path:url(#clip-path)}.cls-5{clip-path:url(#clip-path-2)}
        </style>
        <clipPath id="clip-path">
            <path id="パス_589" d="M144.827 168.474a4.2 4.2 0 0 0-4.2 4.2 4.2 4.2 0 0 0 4.2 4.2 4.2 4.2 0 0 0 4.2-4.2 4.2 4.2 0 0 0-4.2-4.2zm0 7.6a3.4 3.4 0 0 1-3.4-3.4 3.4 3.4 0 1 1 3.4 3.4z" class="cls-1" data-name="パス 589"/>
        </clipPath>
        <clipPath id="clip-path-2">
            <path id="長方形_191" d="M0 0h18v18H0z" class="cls-1" data-name="長方形 191" transform="translate(135.827 163.674)"/>
        </clipPath>
    </defs>
    <g id="グループ_800" data-name="グループ 800" transform="translate(-4415.73 -1719)">
        <text id="Recents" class="cls-2" transform="translate(4435.73 1751.968)">
            <tspan x="-19.395" y="0">Setting</tspan>
        </text>
        <g id="グループ_585" data-name="グループ 585" transform="translate(4291.173 1555.326)">
            <path id="パス_588" d="M152.917 171.074h-.984a.108.108 0 0 1-.106-.082 7.2 7.2 0 0 0-.86-2.078.109.109 0 0 1 .016-.134l.7-.7a.914.914 0 0 0 0-1.288l-.974-.974a.914.914 0 0 0-1.288 0l-.7.7a.108.108 0 0 1-.134.016 7.154 7.154 0 0 0-2.078-.86.109.109 0 0 1-.082-.106v-.984a.912.912 0 0 0-.91-.91h-1.378a.912.912 0 0 0-.912.91v.984a.109.109 0 0 1-.082.106 7.193 7.193 0 0 0-2.078.86.108.108 0 0 1-.134-.016l-.7-.7a.914.914 0 0 0-1.288 0l-.974.974a.914.914 0 0 0 0 1.288l.7.7a.109.109 0 0 1 .016.134 7.138 7.138 0 0 0-.86 2.078.108.108 0 0 1-.106.082h-.984a.912.912 0 0 0-.91.91v1.378a.911.911 0 0 0 .91.912h.984a.109.109 0 0 1 .106.082 7.181 7.181 0 0 0 .86 2.078.109.109 0 0 1-.016.134l-.7.7a.914.914 0 0 0 0 1.288l.974.974a.914.914 0 0 0 1.288 0l.7-.7a.11.11 0 0 1 .134-.016 7.126 7.126 0 0 0 2.078.86.107.107 0 0 1 .082.106v.984a.911.911 0 0 0 .91.91h1.378a.911.911 0 0 0 .91-.91v-.984a.11.11 0 0 1 .082-.106 7.181 7.181 0 0 0 2.078-.86.11.11 0 0 1 .134.016l.7.7a.914.914 0 0 0 1.288 0l.974-.974a.914.914 0 0 0 0-1.288l-.7-.7a.109.109 0 0 1-.016-.134 7.147 7.147 0 0 0 .862-2.078.109.109 0 0 1 .1-.082h.984a.911.911 0 0 0 .916-.906v-1.382a.909.909 0 0 0-.9-.912zm.11 2.29a.11.11 0 0 1-.11.11h-.984a.905.905 0 0 0-.884.7 6.368 6.368 0 0 1-.764 1.846.907.907 0 0 0 .132 1.114l.7.7a.111.111 0 0 1 0 .157l-.974.974a.111.111 0 0 1-.157 0l-.7-.7a.9.9 0 0 0-1.118-.132 6.313 6.313 0 0 1-1.846.764.9.9 0 0 0-.694.882v.984a.11.11 0 0 1-.11.11h-1.378a.111.111 0 0 1-.112-.11v-.984a.906.906 0 0 0-.7-.884 6.368 6.368 0 0 1-1.846-.764.907.907 0 0 0-1.118.134l-.7.7a.111.111 0 0 1-.157 0l-.974-.974a.111.111 0 0 1 0-.157l.7-.7a.9.9 0 0 0 .136-1.118 6.333 6.333 0 0 1-.764-1.842.9.9 0 0 0-.882-.7h-.984a.111.111 0 0 1-.11-.11v-1.378a.111.111 0 0 1 .11-.112h.984a.905.905 0 0 0 .884-.7 6.391 6.391 0 0 1 .764-1.846.908.908 0 0 0-.132-1.114l-.7-.7a.111.111 0 0 1 0-.157l.974-.974a.112.112 0 0 1 .157 0l.7.7a.906.906 0 0 0 1.118.132 6.341 6.341 0 0 1 1.846-.764.9.9 0 0 0 .694-.882v-.984a.112.112 0 0 1 .11-.11h1.378a.112.112 0 0 1 .112.11v.984a.9.9 0 0 0 .7.884 6.368 6.368 0 0 1 1.846.764.906.906 0 0 0 1.118-.132l.7-.7a.112.112 0 0 1 .157 0l.974.974a.111.111 0 0 1 0 .157l-.7.7a.9.9 0 0 0-.132 1.118 6.313 6.313 0 0 1 .764 1.846.9.9 0 0 0 .882.694h.984a.11.11 0 0 1 .11.11z" class="cls-3" data-name="パス 588"/>
            <g id="グループ_584" data-name="グループ 584">
                <g id="グループ_583" class="cls-4" data-name="グループ 583">
                    <g id="グループ_566" data-name="グループ 566">
                        <g id="グループ_582" data-name="グループ 582">
                            <g id="グループ_581" class="cls-5" data-name="グループ 581">
                                <g id="グループ_565" data-name="グループ 565">
                                    <path id="パス_581" d="M135.627 163.474h18.4v18.4h-18.4z" class="cls-3" data-name="パス 581"/>
                                </g>
                            </g>
                        </g>
                    </g>
                </g>
            </g>
        </g>
    </g>
</svg>
