<svg xmlns="http://www.w3.org/2000/svg" width="18.27" height="15.224" viewBox="0 0 18.27 15.224">
    <defs>
        <style>
            .cls-1{opacity:.3}.cls-2{fill:#0a2463}.cls-3{opacity:.25}
        </style>
    </defs>
    <g id="グループ_798" data-name="グループ 798" transform="translate(-34.94 -16.789)">
        <g id="グループ_792" class="cls-1" data-name="グループ 792" transform="translate(47.416 24.401)">
            <path id="パス_641" d="M539.438 302.285a1.758 1.758 0 0 0 .066-.42 2.133 2.133 0 0 0-.046-.513q-.019-.09-.044-.182-.019-.066-.042-.131a2.249 2.249 0 0 0-.192-.41 2.489 2.489 0 0 0-.172-.251 2.865 2.865 0 0 0-.3-.331q-.112-.1-.24-.2t-.3-.208l-.1-.061q-.15-.09-.3-.162a2.883 2.883 0 0 0-.505-.189 2.411 2.411 0 0 0-.423-.074 2.252 2.252 0 0 0-.529.018 2.47 2.47 0 0 0-.407.1 2.032 2.032 0 0 0-.977.69l-.044.057.337.281.242.2.354.3.04.033a1.584 1.584 0 0 1 .9-.5 1.21 1.21 0 0 1 .263-.006 1.333 1.333 0 0 1 .534.169c.033.018.066.038.1.059a1.808 1.808 0 0 1 .171.124 1.273 1.273 0 0 1 .3.337 1.021 1.021 0 0 1 .1.245c0 .016.008.031.012.047a.886.886 0 0 1-.047.579.926.926 0 0 1-.067.123.854.854 0 0 1-.437.345 1.624 1.624 0 0 1-.237.054q-.249.044-.712.1c-.084.009-.164.02-.241.032a2.643 2.643 0 0 0-.907.274 1.805 1.805 0 0 0-.081.051l-.062.044a2.392 2.392 0 0 0-.562.633l-.152.245-.02.033.391.251.276.178.379.244a1.944 1.944 0 0 1 .5-.609 1.87 1.87 0 0 1 .666-.183l.1-.013q.306-.037.56-.081a4 4 0 0 0 .958-.254 1.58 1.58 0 0 0 .68-.584 1.767 1.767 0 0 0 .217-.484z" class="cls-2" data-name="パス 641" transform="translate(-533.712 -299.143)"/>
            <path id="パス_642" d="M498.972 487.267l-.276-.178-.23-.148-.366.569-.375.584.04.026.4.26.276.178.4.26.027.017.043-.067.643-1 .055-.086-.242-.156z" class="cls-2" data-name="パス 642" transform="translate(-497.725 -481.879)"/>
        </g>
        <g id="グループ_793" class="cls-3" data-name="グループ 793" transform="translate(34.94 16.789)">
            <path id="パス_643" d="M44.5 18.177a3.751 3.751 0 0 0-.688-.591 4.55 4.55 0 0 0-.983-.492q-.184-.067-.379-.123a4.531 4.531 0 0 0-.284-.071 4.8 4.8 0 0 0-.96-.111 5.248 5.248 0 0 0-.649.031 6.1 6.1 0 0 0-.942.182q-.315.086-.638.207-.35.131-.709.3c-.074.036-.147.072-.219.109q-.332.171-.629.361a6.154 6.154 0 0 0-.909.705 5.148 5.148 0 0 0-.609.685 4.8 4.8 0 0 0-.56.98 5.254 5.254 0 0 0-.28.848 4.333 4.333 0 0 0 .157 2.546c.018.048.036.1.055.143l.888-.3.638-.213.934-.312.105-.035a3.378 3.378 0 0 1 .095-2.19 2.579 2.579 0 0 1 .284-.483 2.845 2.845 0 0 1 .9-.779c.07-.039.143-.077.218-.113a3.868 3.868 0 0 1 .416-.171 2.712 2.712 0 0 1 .943-.158 2.175 2.175 0 0 1 .56.086l.1.031a1.892 1.892 0 0 1 1 .734 2 2 0 0 1 .149.26 1.822 1.822 0 0 1 .137 1.18 3.476 3.476 0 0 1-.167.491q-.2.5-.625 1.4c-.077.163-.147.32-.212.472a5.639 5.639 0 0 0-.519 1.953v.205c0 .054.005.108.01.163a5.1 5.1 0 0 0 .519 1.731l.273.551.037.073.894-.428.632-.3.867-.414a4.148 4.148 0 0 1-.539-1.6 3.987 3.987 0 0 1 .414-1.414l.089-.2q.274-.6.481-1.106a8.524 8.524 0 0 0 .612-2.023 3.369 3.369 0 0 0-.3-1.887 3.765 3.765 0 0 0-.607-.913z" class="cls-2" data-name="パス 643" transform="translate(-34.94 -16.789)"/>
            <path id="パス_644" d="M312.572 437.6l-.632.3-.526.252.622 1.3.639 1.336.092-.044.925-.443.632-.3.926-.442.062-.029-.073-.153-1.094-2.289-.094-.2-.553.265z" class="cls-2" data-name="パス 644" transform="translate(-303.96 -425.572)"/>
        </g>
        <g id="グループ_794" data-name="グループ 794" transform="translate(40.956 18.549)">
            <path id="パス_645" d="M266.741 84.739a3.009 3.009 0 0 0-.293-.666 3.653 3.653 0 0 0-.542-.7q-.11-.112-.232-.22c-.059-.052-.119-.1-.181-.15a3.845 3.845 0 0 0-.656-.412 4.215 4.215 0 0 0-.481-.2 4.891 4.891 0 0 0-.745-.194q-.258-.047-.534-.071-.3-.026-.617-.026h-.2q-.3.009-.58.044a4.942 4.942 0 0 0-.9.2 4.138 4.138 0 0 0-.678.285 3.857 3.857 0 0 0-.745.516 4.214 4.214 0 0 0-.5.517 3.477 3.477 0 0 0-.767 1.9c0 .041-.007.082-.01.123l.746.093.536.066.784.1.088.011a2.71 2.71 0 0 1 .826-1.553 2.069 2.069 0 0 1 .373-.252 2.282 2.282 0 0 1 .924-.251c.064 0 .13-.007.2-.007a3.105 3.105 0 0 1 .36.02 2.176 2.176 0 0 1 .737.212 1.75 1.75 0 0 1 .376.256l.06.056a1.518 1.518 0 0 1 .468.877 1.6 1.6 0 0 1 .018.239 1.462 1.462 0 0 1-.309.9 2.793 2.793 0 0 1-.291.3q-.319.294-.936.8c-.112.091-.217.181-.317.269a4.523 4.523 0 0 0-1.052 1.234c-.025.048-.048.1-.07.149s-.034.08-.049.121a4.093 4.093 0 0 0-.223 1.432q0 .093.007.493v.066h2.129a3.327 3.327 0 0 1 .163-1.344 3.2 3.2 0 0 1 .789-.88l.134-.113q.405-.337.731-.634a6.838 6.838 0 0 0 1.143-1.252 2.7 2.7 0 0 0 .438-1.469 3.021 3.021 0 0 0-.122-.885z" class="cls-2" data-name="パス 645" transform="translate(-258.087 -82.101)"/>
            <path id="パス_646" d="M379.867 453.638h-1.03v2.345h2.345v-2.345h-1.315z" class="cls-2" data-name="パス 646" transform="translate(-375.581 -443.622)"/>
        </g>
    </g>
</svg>
