<svg xmlns="http://www.w3.org/2000/svg" width="32" height="34.968" viewBox="0 0 32 34.968">
    <defs>
        <style>
            .cls-1{fill:none}.cls-2{isolation:isolate}.cls-3{clip-path:url(#clip-path)}.cls-4{clip-path:url(#clip-path-2)}.cls-5{clip-path:url(#clip-path-3)}.cls-6,.cls-8{fill:#0a2463}.cls-7{clip-path:url(#clip-path-4)}.cls-8{font-size:12px;font-family:Roboto-Regular,Roboto}
        </style>
        <clipPath id="clip-path">
            <path id="長方形_94" d="M0 0h16v16H0z" class="cls-1" data-name="長方形 94" transform="translate(0 -16)"/>
        </clipPath>
        <clipPath id="clip-path-2">
            <path id="パス_574" d="M8.533-16a.533.533 0 0 0-.533.533V-8h7.467A.533.533 0 0 0 16-8.533 7.466 7.466 0 0 0 8.533-16zm.533 6.933v-5.839a6.394 6.394 0 0 1 5.839 5.839z" class="cls-1" data-name="パス 574"/>
        </clipPath>
        <clipPath id="clip-path-3">
            <path id="パス_573" d="M0 0h16v-16H0z" class="cls-1" data-name="パス 573"/>
        </clipPath>
        <clipPath id="clip-path-4">
            <path id="パス_577" d="M13.224-7.347H7.347v-5.878a.49.49 0 0 0-.49-.49A6.857 6.857 0 0 0 0-6.857 6.857 6.857 0 0 0 6.857 0a6.857 6.857 0 0 0 6.857-6.857.49.49 0 0 0-.49-.49zM6.857-.98A5.878 5.878 0 0 1 .98-6.857a5.875 5.875 0 0 1 5.387-5.853v5.853a.49.49 0 0 0 .49.49h5.853A5.875 5.875 0 0 1 6.857-.98z" class="cls-1" data-name="パス 577"/>
        </clipPath>
    </defs>
    <g id="グループ_799" data-name="グループ 799" transform="translate(-234.731 -663)">
        <g id="グループ_790" data-name="グループ 790" transform="translate(243 679)">
            <g id="グループ_561" class="cls-2" data-name="グループ 561">
                <g id="マスクグループ_560" class="cls-3" data-name="マスクグループ 560">
                    <g id="グループ_557" class="cls-4" data-name="グループ 557">
                        <g id="グループ_556" class="cls-5" data-name="グループ 556">
                            <path id="パス_572" d="M3-21h18v18H3z" class="cls-6" data-name="パス 572"/>
                        </g>
                    </g>
                    <g id="グループ_559" class="cls-7" data-name="グループ 559">
                        <g id="グループ_558" class="cls-5" data-name="グループ 558">
                            <path id="パス_575" d="M-5-18.714h23.714V5H-5z" class="cls-6" data-name="パス 575"/>
                        </g>
                    </g>
                </g>
            </g>
        </g>
        <text id="Recents" class="cls-8" transform="translate(250.731 694.968)">
            <tspan x="-15.51" y="0">Score</tspan>
        </text>
    </g>
</svg>
