<svg xmlns="http://www.w3.org/2000/svg" xmlns:xlink="http://www.w3.org/1999/xlink" width="238.38" height="138.293" viewBox="0 0 238.38 138.293">
    <defs>
        <style>
            .cls-1{fill:url(#linear-gradient)}.cls-2{fill:#ffcf00}.cls-3{fill:url(#linear-gradient-2)}.cls-4{fill:url(#linear-gradient-3)}.cls-5{fill:#f38200}.cls-6{fill:url(#linear-gradient-4)}.cls-7{fill:url(#linear-gradient-5)}.cls-8{fill:#dc000c}.cls-9{fill:url(#linear-gradient-6)}.cls-10{fill:url(#linear-gradient-7)}.cls-11{fill:#0099db}.cls-12{fill:url(#linear-gradient-8)}.cls-13{fill:url(#linear-gradient-9)}.cls-14{fill:url(#linear-gradient-10)}.cls-15{fill:url(#linear-gradient-11)}.cls-16{fill:url(#linear-gradient-12)}.cls-17{fill:url(#linear-gradient-13)}.cls-18{fill:#005dab}.cls-19{fill:url(#linear-gradient-14)}.cls-20{fill:#fff}.cls-21{fill:#d43d10}.cls-22{fill:#f7bc00}
        </style>
        <linearGradient id="linear-gradient" x1="-63.101" x2="-63.101" y1="-85.463" y2="-78.651" gradientUnits="objectBoundingBox">
            <stop offset="0" stop-color="#f38200"/>
            <stop offset="1" stop-color="#ffec00"/>
        </linearGradient>
        <linearGradient id="linear-gradient-2" x1="-22.086" x2="-22.086" y1="-19.518" y2="-17.958" xlink:href="#linear-gradient"/>
        <linearGradient id="linear-gradient-3" x1="-18.319" x2="-18.319" y1="-41.923" y2="-35.789" gradientUnits="objectBoundingBox">
            <stop offset="0" stop-color="#dc000c"/>
            <stop offset="1" stop-color="#f38200"/>
        </linearGradient>
        <linearGradient id="linear-gradient-4" x1="-7.816" x2="-7.816" y1="-8.933" y2="-7.643" xlink:href="#linear-gradient-3"/>
        <linearGradient id="linear-gradient-5" x1="-4.875" x2="-4.465" y1="-6.772" y2="-2.018" gradientUnits="objectBoundingBox">
            <stop offset="0" stop-color="#572a06"/>
            <stop offset="1" stop-color="#dc000c"/>
        </linearGradient>
        <linearGradient id="linear-gradient-6" x1="-2.291" x2="-2.075" y1="-2.064" y2="-.834" xlink:href="#linear-gradient-5"/>
        <linearGradient id="linear-gradient-7" x1="-3.2" x2="-2.452" y1="22.517" y2="27.928" gradientUnits="objectBoundingBox">
            <stop offset="0" stop-color="#005dab"/>
            <stop offset=".388" stop-color="#0071bb"/>
            <stop offset="1" stop-color="#0099db"/>
        </linearGradient>
        <linearGradient id="linear-gradient-8" x1="-.812" x2="-.626" y1="7.347" y2="9.221" xlink:href="#linear-gradient-7"/>
        <linearGradient id="linear-gradient-9" x1="-1.522" x2="-1.522" y1="7.369" y2="13.776" xlink:href="#linear-gradient"/>
        <linearGradient id="linear-gradient-10" x1=".087" x2=".087" y1="17.744" y2="37.357" xlink:href="#linear-gradient"/>
        <linearGradient id="linear-gradient-11" x1="-5.32" x2="-5.32" y1="4.427" y2="7.823" xlink:href="#linear-gradient"/>
        <linearGradient id="linear-gradient-12" x1="-.385" x2="-.385" y1="2.829" y2="5.633" xlink:href="#linear-gradient"/>
        <linearGradient id="linear-gradient-13" x1="-12.63" x2="-11.929" y1="35.467" y2="41.094" gradientUnits="objectBoundingBox">
            <stop offset="0" stop-color="#001650"/>
            <stop offset="1" stop-color="#6c92cc"/>
        </linearGradient>
        <linearGradient id="linear-gradient-14" x1="-2.788" x2="-2.642" y1="15.143" y2="17.606" xlink:href="#linear-gradient-13"/>
    </defs>
    <g id="グループ_128" data-name="グループ 128" transform="translate(-5422.352 -1813.329)">
        <g id="グループ_124" data-name="グループ 124" transform="translate(5435.998 1813.329)">
            <g id="グループ_112" data-name="グループ 112" transform="translate(164.233 75.513)">
                <path id="パス_133" d="M6022.318 2081.591c2.513-.223 4.417-1.9 4.254-3.737s-2.333-3.153-4.846-2.929-4.417 1.9-4.254 3.737 2.328 3.152 4.846 2.929z" class="cls-1" data-name="パス 133" transform="translate(-5990.373 -2060.322)"/>
                <g id="グループ_111" data-name="グループ 111">
                    <path id="パス_135" d="M6004.986 2033.54c-.332.338-.649.69-.956 1.051a23.418 23.418 0 0 0-3.134 4.794c-.214.435-.412.878-.6 1.327s-.357.908-.51 1.374a20.016 20.016 0 0 0-.731 2.872c-.03.178-.057.358-.084.538q1.582-.944 3.323-1.879s0-.02.146-.838c.08-.428.166-.857.267-1.285s.21-.858.328-1.286c.237-.856.512-1.71.817-2.56s.641-1.7 1-2.543q.272-.635.564-1.265l.3-.632.153-.316c.051-.106.1-.211.157-.316-.094.073-.182.151-.271.229s-.175.158-.261.238c-.174.157-.342.328-.508.497z" class="cls-2" data-name="パス 135" transform="translate(-5978.251 -2032.576)"/>
                    <path id="パス_136" d="M6013.558 2112.559c.19.154.382.307.577.454a24.767 24.767 0 0 0 2.419 1.618c.415.246.837.477 1.264.7q1.276.661 2.6 1.185t2.684.923a25.755 25.755 0 0 0 2.751.65c-.785-.526-1.57-1.027-2.342-1.538s-1.532-1.024-2.277-1.549-1.474-1.061-2.18-1.613c-.354-.277-.7-.555-1.044-.841s-.678-.573-1.007-.867q-.822-.736-1.581-1.517c-.2-.012-1.894-.108-4.373 0q.415.471.857.912c.35.353.714.688 1.085 1.012.187.159.375.312.567.471z" class="cls-2" data-name="パス 136" transform="translate(-5986.17 -2083.406)"/>
                    <path id="パス_137" d="M5963.532 2083.742a18.288 18.288 0 0 1-1.776-2.446 16.856 16.856 0 0 1-1.341-2.749 16.286 16.286 0 0 1-.815-2.958 16.839 16.839 0 0 1-.256-3.039 19.186 19.186 0 0 1 .189-2.459c-23.4 13.977-20.618 29.324-20.618 29.324 1.83-12.852 17.088-15.154 24.778-15.49z" class="cls-3" data-name="パス 137" transform="translate(-5938.813 -2057.171)"/>
                </g>
            </g>
            <g id="グループ_114" data-name="グループ 114" transform="translate(159.893 44.192)">
                <path id="パス_138" d="M6002.729 1996.087c3.143-1.96 4.524-5.415 3.088-7.718s-5.148-2.578-8.29-.618-4.524 5.416-3.087 7.718 5.147 2.579 8.289.618z" class="cls-4" data-name="パス 138" transform="translate(-5970.568 -1971.012)"/>
                <g id="グループ_113" data-name="グループ 113">
                    <path id="パス_140" d="M5957.83 1943.59a29.59 29.59 0 0 0-.554 2.011 34.292 34.292 0 0 0-.92 8.358c.008.71.043 1.422.1 2.135s.135 1.426.243 2.137a29.1 29.1 0 0 0 .952 4.245q.119.381.247.76 1.441-2.286 3.1-4.667s-.015-.026-.364-1.194c-.181-.614-.353-1.233-.5-1.862s-.3-1.26-.425-1.9q-.387-1.917-.631-3.894t-.376-4q-.066-1.01-.1-2.032a85.56 85.56 0 0 1-.031-1.024q-.006-.257-.009-.515v-.518c-.072.158-.137.319-.2.48s-.125.324-.185.487c-.133.332-.242.662-.347.993z" class="cls-5" data-name="パス 140" transform="translate(-5945.972 -1941.637)"/>
                    <path id="パス_141" d="M6008.188 2044.862c.353.075.706.147 1.059.211a35.82 35.82 0 0 0 4.242.512c.706.047 1.412.068 2.116.072 1.407.012 2.806-.05 4.194-.176s2.764-.32 4.125-.574a37.712 37.712 0 0 0 4.033-.975c-1.376-.166-2.737-.3-4.086-.459s-2.686-.323-4.01-.515-2.633-.411-3.926-.664a62.411 62.411 0 0 1-3.817-.874q-1.566-.42-3.077-.936c-.271.117-2.551 1.115-5.726 2.9q.856.341 1.728.626c.691.229 1.392.427 2.093.6.348.096.701.176 1.052.252z" class="cls-5" data-name="パス 141" transform="translate(-5976.758 -2006.439)"/>
                    <path id="パス_142" d="M5952.435 2019.567a26.9 26.9 0 0 1-3.951-2.023 24.83 24.83 0 0 1-3.58-2.707 24.08 24.08 0 0 1-3.031-3.331 24.744 24.744 0 0 1-2.352-3.808q-.248-.5-.475-1.005t-.43-1.021a25.368 25.368 0 0 1-.482-1.318c-21.346 33.832-7.521 52.08-7.521 52.08-6.138-18.041 12.31-31.186 22.152-36.732-.109-.046-.22-.09-.33-.135z" class="cls-6" data-name="パス 142" transform="translate(-5926.212 -1982.752)"/>
                </g>
            </g>
            <g id="グループ_116" data-name="グループ 116" transform="translate(125.242 26.868)">
                <path id="パス_143" d="M5914.765 1916.492c2.361-4.336 1.7-9.254-1.479-10.985s-7.667.384-10.028 4.721-1.7 9.255 1.479 10.985 7.663-.384 10.028-4.721z" class="cls-7" data-name="パス 143" transform="translate(-5875.584 -1900.231)"/>
                <g id="グループ_115" data-name="グループ 115">
                    <path id="パス_144" d="M5826.047 1894.077c.193.907.421 1.805.677 2.7a45.893 45.893 0 0 0 4.415 10.305c.476.818.983 1.621 1.514 2.413s1.093 1.567 1.685 2.322a38.852 38.852 0 0 0 3.89 4.3c.258.243.52.483.785.722q.174-3.6.539-7.453s-.034-.021-1.207-1.147c-.611-.595-1.218-1.2-1.805-1.83s-1.169-1.269-1.74-1.926q-1.706-1.972-3.286-4.107t-3.058-4.392q-.739-1.129-1.451-2.291a84.308 84.308 0 0 1-.708-1.169q-.177-.294-.349-.592c-.117-.2-.23-.4-.345-.6.019.23.05.459.08.689s.068.457.1.686c.08.463.169.917.264 1.37z" class="cls-8" data-name="パス 144" transform="translate(-5825.603 -1891.338)"/>
                    <path id="パス_146" d="M5949.709 1958.187c.458-.143.915-.29 1.367-.449a48.512 48.512 0 0 0 5.258-2.189 48.785 48.785 0 0 0 2.5-1.3q2.461-1.364 4.753-2.956t4.411-3.373a50.3 50.3 0 0 0 4.042-3.778c-1.707.71-3.375 1.445-5.044 2.148s-3.33 1.388-4.993 2.033-3.326 1.251-4.992 1.8a80.901 80.901 0 0 1-5 1.488 61.66 61.66 0 0 1-4.186.932c-.238.314-2.229 2.968-4.741 7.127q1.218-.165 2.417-.407a40.303 40.303 0 0 0 2.825-.672c.464-.123.925-.261 1.383-.404z" class="cls-8" data-name="パス 146" transform="translate(-5902.621 -1925.953)"/>
                    <path id="パス_147" d="M5890.8 1973.664a35.772 35.772 0 0 1-5.912.243 33.053 33.053 0 0 1-5.933-.794 32.13 32.13 0 0 1-5.7-1.878 32.931 32.931 0 0 1-5.228-2.878q-.615-.414-1.212-.855t-1.168-.9c-.488-.391-.962-.8-1.424-1.213-2.584 53.273 25.434 65.387 25.434 65.387-18.959-16.916-6.169-44.275 1.619-57.17-.165.018-.322.039-.476.058z" class="cls-9" data-name="パス 147" transform="translate(-5850.807 -1939.882)"/>
                </g>
            </g>
            <g id="グループ_118" data-name="グループ 118" transform="translate(62.952 12.882)">
                <path id="パス_148" d="M5775.183 1874.47c.16-6.582-3.62-12.013-8.442-12.13s-8.861 5.123-9.022 11.7 3.62 12.013 8.442 12.13 8.861-5.118 9.022-11.7z" class="cls-10" data-name="パス 148" transform="translate(-5718.806 -1858.34)"/>
                <g id="グループ_117" data-name="グループ 117">
                    <path id="パス_150" d="M5646.943 1913.794q1.17 1.436 2.445 2.788a61.079 61.079 0 0 0 11.512 9.535c1.063.683 2.153 1.326 3.265 1.942s2.249 1.193 3.412 1.729a51.927 51.927 0 0 0 7.233 2.736q.682.2 1.372.377-1.986-4.377-3.9-9.168s-.053 0-2.13-.626c-1.087-.333-2.175-.682-3.255-1.071s-2.161-.793-3.236-1.225c-2.15-.867-4.283-1.831-6.4-2.871s-4.216-2.16-6.3-3.349q-1.566-.89-3.117-1.833a135.169 135.169 0 0 1-2.325-1.445 84.115 84.115 0 0 1-.773-.5c.163.262.339.515.514.77s.36.5.543.75c.368.497.751.981 1.14 1.461z" class="cls-11" data-name="パス 150" transform="translate(-5644.748 -1890.12)"/>
                    <path id="パス_151" d="M5850.667 1880.992c.457-.449.907-.9 1.348-1.364.878-.926 1.73-1.868 2.545-2.838s1.6-1.958 2.36-2.96 1.482-2.03 2.176-3.07q2.089-3.118 3.838-6.4t3.179-6.687a67 67 0 0 0 2.494-6.942c-1.592 1.882-3.124 3.769-4.676 5.619s-3.1 3.674-4.685 5.451-3.184 3.509-4.822 5.181c-.822.833-1.646 1.657-2.487 2.458s-1.688 1.586-2.543 2.355q-2.153 1.916-4.4 3.654c-.091.517-.836 4.878-1.284 11.341q1.345-.939 2.619-1.954a52.53 52.53 0 0 0 2.941-2.517c.477-.434.939-.879 1.397-1.327z" class="cls-11" data-name="パス 151" transform="translate(-5775.185 -1850.73)"/>
                    <path id="パス_152" d="M5772.583 1955.788a47.626 47.626 0 0 1-6.866 3.888 43.951 43.951 0 0 1-7.52 2.669 42.827 42.827 0 0 1-7.908 1.244 44.007 44.007 0 0 1-7.953-.23q-.985-.117-1.958-.277t-1.936-.362a42.825 42.825 0 0 1-2.428-.572c29.369 64.767 69.981 62.078 69.981 62.078-32.789-8.523-34.275-48.765-32.888-68.8-.174.122-.348.243-.524.362z" class="cls-12" data-name="パス 152" transform="translate(-5704.58 -1919.367)"/>
                </g>
            </g>
            <g id="グループ_123" data-name="グループ 123">
                <g id="グループ_120" data-name="グループ 120">
                    <path id="パス_153" d="M5602.761 1907.621c-3.436-7.749-10.824-11.99-16.5-9.473s-7.495 10.84-4.059 18.589 10.824 11.991 16.5 9.473 7.498-10.84 4.059-18.589z" class="cls-13" data-name="パス 153" transform="translate(-5539.651 -1868.459)"/>
                    <g id="グループ_119" data-name="グループ 119">
                        <path id="パス_155" d="M5466.165 2034.583c1.435.685 2.9 1.314 4.382 1.9a78.646 78.646 0 0 0 18.647 4.764c1.611.209 3.236.358 4.868.464s3.275.151 4.923.134a66.886 66.886 0 0 0 9.926-.8c.6-.1 1.2-.2 1.8-.315q-4.72-4-9.582-8.527s-.062.025-2.824.443c-1.447.211-2.907.4-4.377.545s-2.952.265-4.441.355c-2.98.174-5.992.226-9.029.18s-6.1-.194-9.176-.43q-2.311-.174-4.637-.418c-.776-.08-1.552-.169-2.333-.258-.39-.044-.779-.094-1.17-.145s-.782-.1-1.175-.155c.334.216.679.413 1.022.613s.694.385 1.044.573c.704.38 1.415.734 2.132 1.077z" class="cls-14" data-name="パス 155" transform="translate(-5461.97 -1956.821)"/>
                        <path id="パス_156" d="M5713.985 1858.426c.284-.774.561-1.549.817-2.329.514-1.56.987-3.127 1.4-4.7s.786-3.16 1.118-4.745.608-3.177.843-4.771q.715-4.777.945-9.562t.021-9.532a85.962 85.962 0 0 0-.918-9.453c-.817 3.066-1.561 6.106-2.35 9.114s-1.592 5.985-2.454 8.923-1.773 5.837-2.762 8.684c-.5 1.423-1 2.835-1.542 4.23s-1.091 2.776-1.664 4.141q-1.45 3.414-3.106 6.674c.177.652 1.709 6.139 4.747 13.908q1.048-1.831 1.972-3.716a70.751 70.751 0 0 0 2.933-6.866z" class="cls-15" data-name="パス 156" transform="translate(-5620.859 -1813.329)"/>
                        <path id="パス_157" d="M5642.563 1975.682a61.365 61.365 0 0 1-5.852 8.305 56.652 56.652 0 0 1-7.284 7.245 54.986 54.986 0 0 1-8.521 5.8 56.608 56.608 0 0 1-9.385 4.11q-1.208.4-2.431.754t-2.453.646a57.216 57.216 0 0 1-3.142.67c69.831 59.225 115.622 33.744 115.622 33.744-42.857 8.125-66.732-37.9-76.146-61.984a72.12 72.12 0 0 1-.408.71z" class="cls-16" data-name="パス 157" transform="translate(-5554.752 -1919.299)"/>
                    </g>
                </g>
                <g id="グループ_122" data-name="グループ 122">
                    <path id="パス_158" d="M5602.761 1907.621c-3.436-7.749-10.824-11.99-16.5-9.473s-7.495 10.84-4.059 18.589 10.824 11.991 16.5 9.473 7.498-10.84 4.059-18.589z" class="cls-17" data-name="パス 158" transform="translate(-5539.651 -1868.459)"/>
                    <g id="グループ_121" data-name="グループ 121">
                        <path id="パス_160" d="M5466.165 2034.583c1.435.685 2.9 1.314 4.382 1.9a78.646 78.646 0 0 0 18.647 4.764c1.611.209 3.236.358 4.868.464s3.275.151 4.923.134a66.886 66.886 0 0 0 9.926-.8c.6-.1 1.2-.2 1.8-.315q-4.72-4-9.582-8.527s-.062.025-2.824.443c-1.447.211-2.907.4-4.377.545s-2.952.265-4.441.355c-2.98.174-5.992.226-9.029.18s-6.1-.194-9.176-.43q-2.311-.174-4.637-.418c-.776-.08-1.552-.169-2.333-.258-.39-.044-.779-.094-1.17-.145s-.782-.1-1.175-.155c.334.216.679.413 1.022.613s.694.385 1.044.573c.704.38 1.415.734 2.132 1.077z" class="cls-18" data-name="パス 160" transform="translate(-5461.97 -1956.821)"/>
                        <path id="パス_161" d="M5713.985 1858.426c.284-.774.561-1.549.817-2.329.514-1.56.987-3.127 1.4-4.7s.786-3.16 1.118-4.745.608-3.177.843-4.771q.715-4.777.945-9.562t.021-9.532a85.962 85.962 0 0 0-.918-9.453c-.817 3.066-1.561 6.106-2.35 9.114s-1.592 5.985-2.454 8.923-1.773 5.837-2.762 8.684c-.5 1.423-1 2.835-1.542 4.23s-1.091 2.776-1.664 4.141q-1.45 3.414-3.106 6.674c.177.652 1.709 6.139 4.747 13.908q1.048-1.831 1.972-3.716a70.751 70.751 0 0 0 2.933-6.866z" class="cls-18" data-name="パス 161" transform="translate(-5620.859 -1813.329)"/>
                        <path id="パス_162" d="M5642.563 1975.682a61.365 61.365 0 0 1-5.852 8.305 56.652 56.652 0 0 1-7.284 7.245 54.986 54.986 0 0 1-8.521 5.8 56.608 56.608 0 0 1-9.385 4.11q-1.208.4-2.431.754t-2.453.646a57.216 57.216 0 0 1-3.142.67c69.831 59.225 115.622 33.744 115.622 33.744-42.857 8.125-66.732-37.9-76.146-61.984a72.12 72.12 0 0 1-.408.71z" class="cls-19" data-name="パス 162" transform="translate(-5554.752 -1919.299)"/>
                    </g>
                </g>
            </g>
        </g>
        <g id="グループ_126" data-name="グループ 126" transform="translate(5422.352 1929.564)">
            <path id="パス_171" d="M5660.347 2168.977l-5.315-7.789 4.938-6.408a2.215 2.215 0 0 0-1.755-3.567h-6.573a2.214 2.214 0 0 1-3.173 0h-5.44a2.208 2.208 0 0 0-1.6.69 14.247 14.247 0 0 0-2.283-.75 12.955 12.955 0 0 0-3.088-.342 11.741 11.741 0 0 0-4.216.763 10.6 10.6 0 0 0-3.364 2.065v-.21a2.216 2.216 0 0 0-2.215-2.215h-9.9a2.211 2.211 0 0 1-1.762 0h-5.389a2.215 2.215 0 0 1-3 0h-5.364a2.207 2.207 0 0 0-1.6.69 14.247 14.247 0 0 0-2.283-.75 12.952 12.952 0 0 0-3.088-.342 11.738 11.738 0 0 0-4.216.763 10.585 10.585 0 0 0-3.562 2.245 10.718 10.718 0 0 0-2.413 3.5c-.027.062-.051.127-.077.19h-5.859a8.02 8.02 0 0 0-2.634-4.1 9.188 9.188 0 0 0-3.13-1.665 12.23 12.23 0 0 0-3.643-.529h-5.792a2.208 2.208 0 0 1-1.687 0h-9.9c-.07 0-.139 0-.207.011s-.113-.011-.17-.011h-5.868a2.215 2.215 0 0 0-2.062 1.4l-.8 2.035-.791-2.029a2.216 2.216 0 0 0-2.064-1.411h-5.868c-.057 0-.114.006-.17.011s-.137-.011-.207-.011h-5.692a2.214 2.214 0 0 0-2.21 2.123 9.213 9.213 0 0 0-3.035-1.594 12.235 12.235 0 0 0-3.643-.529h-5.793a2.216 2.216 0 0 0-2.215 2.215v.73a9.931 9.931 0 0 0-.359-.318 10.662 10.662 0 0 0-3.932-2.013 17.632 17.632 0 0 0-4.827-.615h-4.659a2.216 2.216 0 0 0-2.215 2.215v4.08h-5.879c-.026-.066-.05-.134-.078-.2a9.07 9.07 0 0 0-2.562-3.469 10.662 10.662 0 0 0-3.931-2.013 17.64 17.64 0 0 0-4.827-.615h-4.659a2.215 2.215 0 0 0-2.215 2.215v10.177h-1.084v-10.175a2.216 2.216 0 0 0-2.215-2.215h-5.591a2.215 2.215 0 0 0-2.215 2.215v.815c-.063-.067-.12-.138-.185-.2a11.139 11.139 0 0 0-3.5-2.357 11.03 11.03 0 0 0-8.6 0 11.031 11.031 0 0 0-5.857 5.857c-.1.238-.192.48-.276.724h-1.524l1.531-2.176a2.216 2.216 0 0 0-.365-2.952 8.556 8.556 0 0 0-1.842-1.186 11.463 11.463 0 0 0-2.154-.788 11.751 11.751 0 0 0-3.017-.353 10.619 10.619 0 0 0-7.707 3.264 11.045 11.045 0 0 0-2.253 3.506 11.246 11.246 0 0 0-.817 4.26 10.968 10.968 0 0 0 3.237 7.844 11.124 11.124 0 0 0 10.786 2.774 10.9 10.9 0 0 0 2.7-1.171 11.067 11.067 0 0 0 2.252-1.81 11.471 11.471 0 0 0 .829-.979 10.9 10.9 0 0 0 .976 1.14 11.125 11.125 0 0 0 3.5 2.358 11.036 11.036 0 0 0 8.6 0 11.134 11.134 0 0 0 3.5-2.358c.065-.064.122-.136.185-.2v.789a2.215 2.215 0 0 0 2.215 2.216h10.225a2.227 2.227 0 0 1 .88 0h4.659a17.308 17.308 0 0 0 4.84-.631 10.809 10.809 0 0 0 3.918-2.023 9.064 9.064 0 0 0 2.562-3.47c.024-.057.045-.115.068-.173h5.889v4.08a2.216 2.216 0 0 0 2.215 2.216h4.659a17.3 17.3 0 0 0 4.839-.631 10.81 10.81 0 0 0 3.919-2.023c.123-.1.242-.209.359-.317v.755a2.216 2.216 0 0 0 2.215 2.216h5.365a2.215 2.215 0 0 1 2.518 0h6.3a2.105 2.105 0 0 0 .245-.017 2.188 2.188 0 0 0 .258.017h5.692a2.216 2.216 0 0 0 2.215-2.216v-5.982l2.646 6.787a2.214 2.214 0 0 0 2.063 1.411h4.356a2.215 2.215 0 0 0 2.064-1.411l2.646-6.787v5.983a2.216 2.216 0 0 0 2.215 2.216h10.073a2.178 2.178 0 0 1 1.511 0h5.364a2.216 2.216 0 0 1 2.519 0h6.3a2.215 2.215 0 0 0 1.926-3.31l-1.7-2.987h6.638c.019.046.035.093.054.138a10.406 10.406 0 0 0 2.4 3.527 10.785 10.785 0 0 0 3.6 2.267 13.055 13.055 0 0 0 7.589.414 16.228 16.228 0 0 0 2.06-.685 2.209 2.209 0 0 0 1.55.634h5.364a2.215 2.215 0 0 1 3 0h5.389a2.206 2.206 0 0 1 1.762 0h10.074a2.216 2.216 0 0 0 2.215-2.216v-.032a10.9 10.9 0 0 0 3.181 1.884 13.055 13.055 0 0 0 7.589.414 16.2 16.2 0 0 0 2.06-.685 2.208 2.208 0 0 0 1.55.634h5.44a2.215 2.215 0 0 1 3.576 0h6.472a2.215 2.215 0 0 0 1.83-3.464zm-227.922-6.2a1.179 1.179 0 0 1-.252-.389 1.382 1.382 0 0 1-.1-.546 1.688 1.688 0 0 1 .1-.615 1.166 1.166 0 0 1 .235-.394l.015-.015zm19.724-.441a1.327 1.327 0 0 1-.721.72 1.229 1.229 0 0 1-.494.1 1.2 1.2 0 0 1-.5-.1 1.325 1.325 0 0 1-.719-.72 1.208 1.208 0 0 1-.1-.494 1.227 1.227 0 0 1 .1-.5 1.345 1.345 0 0 1 .287-.431 1.362 1.362 0 0 1 .431-.287 1.2 1.2 0 0 1 .5-.1 1.231 1.231 0 0 1 .494.1 1.322 1.322 0 0 1 .72.72 1.332 1.332 0 0 1 0 .989zm145.425-.494a2.214 2.214 0 0 0-1.565.648 1.692 1.692 0 0 1-.384.281l-.056.032a3.114 3.114 0 0 1-.609.253 2.558 2.558 0 0 1-.76.1 1.694 1.694 0 0 1-.651-.115 1.528 1.528 0 0 1-.493-.311 1.3 1.3 0 0 1-.3-.425 1.067 1.067 0 0 1-.094-.46 1.238 1.238 0 0 1 .376-.906 1.414 1.414 0 0 1 1.036-.4 2.307 2.307 0 0 1 .674.084 7.092 7.092 0 0 1 .669.247 6.562 6.562 0 0 1 .576.384 2.216 2.216 0 0 0 1.33.443 2.213 2.213 0 0 0 1.31-.43v.854a2.21 2.21 0 0 0-.76-.251 2.153 2.153 0 0 0-.299-.03zm42.182 0a2.214 2.214 0 0 0-1.565.648 1.689 1.689 0 0 1-.384.281l-.056.032a3.147 3.147 0 0 1-.61.253 2.556 2.556 0 0 1-.76.1 1.694 1.694 0 0 1-.651-.115 1.536 1.536 0 0 1-.494-.311 1.307 1.307 0 0 1-.3-.425 1.074 1.074 0 0 1-.093-.46 1.231 1.231 0 0 1 .1-.5 1.245 1.245 0 0 1 .28-.41 1.419 1.419 0 0 1 1.036-.4 2.305 2.305 0 0 1 .674.084 6.956 6.956 0 0 1 .669.247 6.562 6.562 0 0 1 .576.384 2.214 2.214 0 0 0 2.64.014v.853a2.211 2.211 0 0 0-.76-.251 2.154 2.154 0 0 0-.302-.026z" class="cls-20" data-name="パス 171" transform="translate(-5422.352 -2150.81)"/>
            <path id="パス_172" d="M5439.864 2163.361a3.075 3.075 0 0 0-1.133-.617 4.437 4.437 0 0 0-1.334-.214 3.3 3.3 0 0 0-1.335.264 3.177 3.177 0 0 0-1.045.731 3.37 3.37 0 0 0-.692 1.12 3.9 3.9 0 0 0-.251 1.411 3.572 3.572 0 0 0 .277 1.41 3.375 3.375 0 0 0 .755 1.121 3.479 3.479 0 0 0 1.121.73 3.559 3.559 0 0 0 1.372.265 3.345 3.345 0 0 0 1.562-.365 3.72 3.72 0 0 0 1.208-.995h-1.511v-3.522h6.472v5.591a9.268 9.268 0 0 1-1.385 1.876 8.789 8.789 0 0 1-1.8 1.448 8.653 8.653 0 0 1-2.154.932 8.771 8.771 0 0 1-11.206-8.486 9 9 0 0 1 .655-3.425 8.793 8.793 0 0 1 1.8-2.808 8.41 8.41 0 0 1 2.72-1.889 8.311 8.311 0 0 1 3.387-.693 9.516 9.516 0 0 1 2.442.277 9.38 9.38 0 0 1 1.738.63 6.372 6.372 0 0 1 1.385.881zm.251-3.249a4.163 4.163 0 0 0-.73-.251 7.184 7.184 0 0 0-.831-.176 6.8 6.8 0 0 0-1.058-.076 6.475 6.475 0 0 0-2.492.478 6.224 6.224 0 0 0-2.015 1.322 6.068 6.068 0 0 0-1.347 2.027 6.768 6.768 0 0 0-.491 2.619 6.611 6.611 0 0 0 .5 2.619 6.051 6.051 0 0 0 1.385 2.027 6.482 6.482 0 0 0 2.052 1.322 6.561 6.561 0 0 0 2.505.479 6.153 6.153 0 0 0 3.148-.819 6.69 6.69 0 0 0 2.292-2.178v-3.3h-2.669v.6h2.015v2.519a5.7 5.7 0 0 1-4.786 2.518 6.051 6.051 0 0 1-2.254-.415 5.583 5.583 0 0 1-1.838-1.184 5.512 5.512 0 0 1-1.247-1.838 5.976 5.976 0 0 1-.453-2.354 6.133 6.133 0 0 1 .44-2.355 5.566 5.566 0 0 1 1.209-1.838 5.339 5.339 0 0 1 1.8-1.184 5.943 5.943 0 0 1 2.241-.416 4.626 4.626 0 0 1 .856.076c.269.051.5.1.706.151.235.067.453.135.655.2z" class="cls-21" data-name="パス 172" transform="translate(-5426.568 -2155.027)"/>
            <path id="パス_173" d="M5479.746 2166.056a8.573 8.573 0 0 1 .693-3.425 8.808 8.808 0 0 1 4.7-4.7 8.815 8.815 0 0 1 6.85 0 8.81 8.81 0 0 1 4.7 4.7 8.812 8.812 0 0 1 0 6.85 8.811 8.811 0 0 1-4.7 4.7 8.82 8.82 0 0 1-6.85 0 8.81 8.81 0 0 1-4.7-4.7 8.571 8.571 0 0 1-.693-3.425zm2.368 0a6.261 6.261 0 0 0 .5 2.505 6.49 6.49 0 0 0 3.437 3.438 6.48 6.48 0 0 0 5.011 0 6.49 6.49 0 0 0 3.438-3.437 6.487 6.487 0 0 0 0-5.011 6.495 6.495 0 0 0-3.438-3.438 6.486 6.486 0 0 0-5.011 0 6.494 6.494 0 0 0-3.437 3.438 6.261 6.261 0 0 0-.501 2.505zm6.447 5.792a5.609 5.609 0 0 1-2.254-.453 5.9 5.9 0 0 1-3.084-3.085 5.832 5.832 0 0 1 0-4.508 5.894 5.894 0 0 1 3.084-3.085 5.828 5.828 0 0 1 4.508 0 5.893 5.893 0 0 1 3.085 3.085 5.832 5.832 0 0 1 0 4.508 5.9 5.9 0 0 1-3.085 3.085 5.607 5.607 0 0 1-2.255.453zm-3.525-5.792a3.426 3.426 0 0 0 .277 1.372 3.539 3.539 0 0 0 1.876 1.876 3.538 3.538 0 0 0 2.745 0 3.539 3.539 0 0 0 1.876-1.876 3.54 3.54 0 0 0 0-2.745 3.537 3.537 0 0 0-1.876-1.876 3.538 3.538 0 0 0-2.745 0 3.537 3.537 0 0 0-1.876 1.876 3.43 3.43 0 0 0-.278 1.373z" class="cls-21" data-name="パス 173" transform="translate(-5459.978 -2155.027)"/>
            <path id="パス_174" d="M5534.95 2158.412h5.59v12.39h4.634v4.407h-10.224zm8.814 14.783v-.6h-5.642v-12.164h-.654v12.769z" class="cls-21" data-name="パス 174" transform="translate(-5496.169 -2155.794)"/>
            <path id="パス_175" d="M5567.194 2175.209v-16.8h4.659a15.375 15.375 0 0 1 4.218.529 8.425 8.425 0 0 1 3.123 1.587 6.843 6.843 0 0 1 1.939 2.631 10.26 10.26 0 0 1 0 7.278 6.845 6.845 0 0 1-1.939 2.632 8.579 8.579 0 0 1-3.123 1.6 15.033 15.033 0 0 1-4.218.541zm2.519-2.014h2.14a8.1 8.1 0 0 0 5.553-1.675 6.865 6.865 0 0 0 0-9.431 8.145 8.145 0 0 0-5.553-1.663h-2.14zm.654-.6v-11.559h1.486a7.666 7.666 0 0 1 4.974 1.448 6.157 6.157 0 0 1 0 8.65 7.619 7.619 0 0 1-4.974 1.461zm2.191-2.166a4.326 4.326 0 0 0 2.921-.894 3.419 3.419 0 0 0 1.032-2.732 3.383 3.383 0 0 0-1.032-2.72 4.369 4.369 0 0 0-2.921-.881z" class="cls-21" data-name="パス 175" transform="translate(-5517.308 -2155.794)"/>
            <path id="パス_176" d="M5613.624 2176.692h6.648v4.206h-6.648zm5.163 2.392v-.579h-3.626v.579z" class="cls-21" data-name="パス 176" transform="translate(-5547.746 -2167.778)"/>
            <path id="パス_177" d="M5637.313 2175.209v-16.8h4.66a15.375 15.375 0 0 1 4.218.529 8.433 8.433 0 0 1 3.123 1.587 6.847 6.847 0 0 1 1.939 2.631 10.26 10.26 0 0 1 0 7.278 6.848 6.848 0 0 1-1.939 2.632 8.587 8.587 0 0 1-3.123 1.6 15.033 15.033 0 0 1-4.218.541zm2.519-2.014h2.141a8.1 8.1 0 0 0 5.552-1.675 6.865 6.865 0 0 0 0-9.431 8.143 8.143 0 0 0-5.552-1.663h-2.141zm.654-.6v-11.559h1.486a7.665 7.665 0 0 1 4.973 1.448 6.155 6.155 0 0 1 0 8.65 7.618 7.618 0 0 1-4.973 1.461zm2.191-2.166a4.328 4.328 0 0 0 2.921-.894 3.419 3.419 0 0 0 1.033-2.732 3.383 3.383 0 0 0-1.033-2.72 4.372 4.372 0 0 0-2.921-.881z" class="cls-22" data-name="パス 177" transform="translate(-5563.276 -2155.794)"/>
            <path id="パス_178" d="M5683.743 2158.412h5.792a9.984 9.984 0 0 1 2.984.428 6.948 6.948 0 0 1 2.38 1.259 5.763 5.763 0 0 1 1.574 2.053 6.608 6.608 0 0 1 .567 2.808 5.792 5.792 0 0 1-.353 2.14 6.616 6.616 0 0 1-.781 1.461 5.463 5.463 0 0 1-1.133 1.108l3.148 5.54h-6.3l-2.519-4.256v4.256h-5.364zm5.239 10.955a9.036 9.036 0 0 0 1.914-.2l2.392 4.029h.781l-2.518-4.231a4.733 4.733 0 0 0 2.166-1.473 3.975 3.975 0 0 0 .806-2.581 4.184 4.184 0 0 0-.428-1.939 4.106 4.106 0 0 0-1.171-1.4 5.24 5.24 0 0 0-1.75-.856 7.909 7.909 0 0 0-2.19-.29h-2.72v12.769h.654v-3.828zm-2.066-.6v-7.731h2.066a5.722 5.722 0 0 1 3.588 1.007 3.424 3.424 0 0 1 1.3 2.871 3.387 3.387 0 0 1-1.3 2.858 5.769 5.769 0 0 1-3.588.995zm2.191-2.09h.277a2.953 2.953 0 0 0 1.625-.427 1.879 1.879 0 0 0 0-2.872 2.953 2.953 0 0 0-1.625-.428h-.277z" class="cls-22" data-name="パス 178" transform="translate(-5593.715 -2155.794)"/>
            <path id="パス_179" d="M5726.371 2158.412h5.692v16.8h-5.692zm3.173 14.783v-12.769h-.654v12.769z" class="cls-22" data-name="パス 179" transform="translate(-5621.661 -2155.794)"/>
            <path id="パス_180" d="M5749.859 2158.412l2.846 7.3 2.871-7.3h5.868l-6.548 16.8h-4.356l-6.547-16.8zm3.124 14.783l4.985-12.769h-.7l-4.559 11.61-4.532-11.61h-.706l4.986 12.769z" class="cls-22" data-name="パス 180" transform="translate(-5633.213 -2155.794)"/>
            <path id="パス_181" d="M5795.759 2158.412h9.9v4.407h-4.533v1.863h4.458v4.18h-4.458v1.94h4.709v4.407h-10.074zm8.21 14.783v-.6h-5.037v-5.515h4.784v-.6h-4.784v-5.44h5.037v-.6h-5.691v12.769z" class="cls-22" data-name="パス 181" transform="translate(-5667.15 -2155.794)"/>
            <path id="パス_182" d="M5829.393 2158.412h5.792a9.987 9.987 0 0 1 2.984.428 6.952 6.952 0 0 1 2.38 1.259 5.762 5.762 0 0 1 1.574 2.053 6.593 6.593 0 0 1 .567 2.808 5.772 5.772 0 0 1-.353 2.14 6.6 6.6 0 0 1-.78 1.461 5.475 5.475 0 0 1-1.133 1.108l3.147 5.54h-6.3l-2.518-4.256v4.256h-5.364zm5.238 10.955a9.037 9.037 0 0 0 1.914-.2l2.392 4.029h.781l-2.519-4.231a4.728 4.728 0 0 0 2.166-1.473 3.97 3.97 0 0 0 .807-2.581 4.184 4.184 0 0 0-.429-1.939 4.1 4.1 0 0 0-1.17-1.4 5.245 5.245 0 0 0-1.75-.856 7.916 7.916 0 0 0-2.191-.29h-2.719v12.769h.654v-3.828zm-2.065-.6v-7.731h2.065a5.722 5.722 0 0 1 3.589 1.007 3.425 3.425 0 0 1 1.3 2.871 3.388 3.388 0 0 1-1.3 2.858 5.769 5.769 0 0 1-3.589.995zm2.191-2.09h.277a2.948 2.948 0 0 0 1.625-.427 1.879 1.879 0 0 0 0-2.872 2.948 2.948 0 0 0-1.625-.428h-.277z" class="cls-22" data-name="パス 182" transform="translate(-5689.201 -2155.794)"/>
            <path id="パス_183" d="M5871.29 2176.692h6.648v4.206h-6.648zm5.162 2.392v-.579h-3.626v.579z" class="cls-22" data-name="パス 183" transform="translate(-5716.667 -2167.778)"/>
            <path id="パス_184" d="M5894.612 2166.056a9.046 9.046 0 0 1 .705-3.639 8.485 8.485 0 0 1 1.914-2.783 8.348 8.348 0 0 1 2.821-1.775 9.5 9.5 0 0 1 3.425-.617 10.711 10.711 0 0 1 2.556.277 12.117 12.117 0 0 1 1.926.63 9.076 9.076 0 0 1 1.612.881l-2.645 4.659a9.042 9.042 0 0 0-.881-.58 8.5 8.5 0 0 0-1.021-.39 4.417 4.417 0 0 0-1.347-.189 3.637 3.637 0 0 0-2.582 1.033 3.468 3.468 0 0 0-.768 1.121 3.43 3.43 0 0 0-.277 1.373 3.3 3.3 0 0 0 .29 1.372 3.518 3.518 0 0 0 .793 1.121 3.747 3.747 0 0 0 1.183.756 3.9 3.9 0 0 0 1.486.277 4.7 4.7 0 0 0 1.435-.2 5.249 5.249 0 0 0 1.058-.453 3.9 3.9 0 0 0 .882-.655l2.644 4.659a7.48 7.48 0 0 1-1.612.981 13.6 13.6 0 0 1-1.939.655 10.073 10.073 0 0 1-2.593.3 9.971 9.971 0 0 1-3.626-.642 8.536 8.536 0 0 1-2.871-1.8 8.172 8.172 0 0 1-1.889-2.783 9.2 9.2 0 0 1-.679-3.589zm3.173 0a6.146 6.146 0 0 1 .416-2.267 5.363 5.363 0 0 1 3.009-3.072 6.2 6.2 0 0 1 2.417-.454 7.005 7.005 0 0 1 1.171.088 5.312 5.312 0 0 1 .869.214 3.319 3.319 0 0 1 .731.3l.352-.6q-.4-.176-.856-.327a9.706 9.706 0 0 0-.982-.226 7.232 7.232 0 0 0-1.285-.1 6.747 6.747 0 0 0-2.455.454 6.287 6.287 0 0 0-2.065 1.3 6.363 6.363 0 0 0-1.977 4.7 6.6 6.6 0 0 0 .517 2.669 6.015 6.015 0 0 0 1.422 2.028 6.338 6.338 0 0 0 2.116 1.3 7.264 7.264 0 0 0 2.568.453 6.675 6.675 0 0 0 1.36-.126 8.114 8.114 0 0 0 1.033-.277 5.013 5.013 0 0 0 .856-.4l-.353-.6a3.194 3.194 0 0 1-.755.378 5.657 5.657 0 0 1-.907.265 5.929 5.929 0 0 1-1.234.113 6.54 6.54 0 0 1-2.493-.453 5.525 5.525 0 0 1-1.876-1.234 5.4 5.4 0 0 1-1.184-1.838 6.148 6.148 0 0 1-.414-2.288z" class="cls-8" data-name="パス 184" transform="translate(-5731.957 -2155.027)"/>
            <path id="パス_185" d="M5940.6 2158.412h5.364v5.717h3v-5.717h5.389v16.8h-5.389v-6.22h-3v6.22h-5.364zm3.173 14.783v-6.372h7.4v6.372h.655v-12.769h-.655v5.793h-7.4v-5.793h-.654v12.769z" class="cls-8" data-name="パス 185" transform="translate(-5762.109 -2155.794)"/>
            <path id="パス_186" d="M5985.645 2158.412h9.9v4.407h-4.533v1.863h4.457v4.18h-4.457v1.94h4.709v4.407h-10.074zm8.211 14.783v-.6h-5.038v-5.515h4.785v-.6h-4.785v-5.44h5.038v-.6h-5.692v12.769z" class="cls-8" data-name="パス 186" transform="translate(-5791.636 -2155.794)"/>
            <path id="パス_187" d="M6017.086 2166.056a9.054 9.054 0 0 1 .7-3.639 8.492 8.492 0 0 1 1.914-2.783 8.348 8.348 0 0 1 2.821-1.775 9.5 9.5 0 0 1 3.425-.617 10.714 10.714 0 0 1 2.557.277 12.134 12.134 0 0 1 1.926.63 9.036 9.036 0 0 1 1.612.881l-2.645 4.659a8.925 8.925 0 0 0-.881-.58 8.494 8.494 0 0 0-1.02-.39 4.423 4.423 0 0 0-1.347-.189 3.635 3.635 0 0 0-2.581 1.033 3.47 3.47 0 0 0-.769 1.121 3.421 3.421 0 0 0-.277 1.373 3.3 3.3 0 0 0 .29 1.372 3.5 3.5 0 0 0 .793 1.121 3.744 3.744 0 0 0 1.184.756 3.9 3.9 0 0 0 1.486.277 4.7 4.7 0 0 0 1.435-.2 5.243 5.243 0 0 0 1.058-.453 3.894 3.894 0 0 0 .881-.655l2.645 4.659a7.5 7.5 0 0 1-1.612.981 13.65 13.65 0 0 1-1.939.655 10.087 10.087 0 0 1-2.594.3 9.973 9.973 0 0 1-3.626-.642 8.551 8.551 0 0 1-2.871-1.8 8.171 8.171 0 0 1-1.889-2.783 9.2 9.2 0 0 1-.676-3.589zm3.173 0a6.146 6.146 0 0 1 .416-2.267 5.366 5.366 0 0 1 3.01-3.072 6.2 6.2 0 0 1 2.417-.454 7 7 0 0 1 1.171.088 5.312 5.312 0 0 1 .869.214 3.3 3.3 0 0 1 .73.3l.353-.6q-.4-.176-.855-.327a9.738 9.738 0 0 0-.982-.226 7.236 7.236 0 0 0-1.285-.1 6.749 6.749 0 0 0-2.456.454 6.28 6.28 0 0 0-2.065 1.3 6.358 6.358 0 0 0-1.977 4.7 6.607 6.607 0 0 0 .516 2.669 6.03 6.03 0 0 0 1.423 2.028 6.343 6.343 0 0 0 2.116 1.3 7.264 7.264 0 0 0 2.568.453 6.688 6.688 0 0 0 1.361-.126 8.073 8.073 0 0 0 1.032-.277 5.013 5.013 0 0 0 .856-.4l-.353-.6a3.19 3.19 0 0 1-.755.378 5.679 5.679 0 0 1-.908.265 5.929 5.929 0 0 1-1.234.113 6.532 6.532 0 0 1-2.493-.453 5.522 5.522 0 0 1-1.876-1.234 5.412 5.412 0 0 1-1.184-1.838 6.148 6.148 0 0 1-.415-2.288z" class="cls-8" data-name="パス 187" transform="translate(-5812.249 -2155.027)"/>
            <path id="パス_188" d="M6063.077 2158.412h5.439v3.878l3.173-3.878h6.573l-5.918 7.681 6.22 9.116h-6.472l-3.577-5.187v5.188h-5.439zm3.173 14.783v-3.4l2.619-3.249 4.583 6.648h.781l-4.911-7.177 4.508-5.591h-.806l-6.774 8.361v-8.361h-.654v12.769z" class="cls-8" data-name="パス 188" transform="translate(-5842.4 -2155.794)"/>
        </g>
    </g>
</svg>
